<svg width="37" height="97" viewBox="0 0 37 97" fill="none" xmlns="http://www.w3.org/2000/svg">
<mask id="path-1-outside-1_1_18986" maskUnits="userSpaceOnUse" x="-1.70898" y="-1.16016" width="39" height="100" fill="black">
<rect fill="white" x="-1.70898" y="-1.16016" width="39" height="100"/>
<path d="M36.1492 0.464841V96.8398H24.4788V12.7H23.9141L0.38501 28.3232V16.4646L24.4788 0.464841H36.1492Z"/>
</mask>
<path d="M36.1492 0.46484H37.2535V-0.639456H36.1492V0.46484ZM36.1492 96.8398V97.9441H37.2535V96.8398H36.1492ZM24.4788 96.8398H23.3745V97.9441H24.4788V96.8398ZM24.4788 12.7H25.5831V11.5957H24.4788V12.7ZM23.9141 12.7V11.5957H23.5808L23.3032 11.78L23.9141 12.7ZM0.38501 28.3232H-0.719287V30.3821L0.995864 29.2432L0.38501 28.3232ZM0.38501 16.4646L-0.225884 15.5447L-0.719287 15.8723V16.4646H0.38501ZM24.4788 0.46484V-0.639456H24.1455L23.8679 -0.455093L24.4788 0.46484ZM35.0449 0.46484V96.8398H37.2535V0.46484H35.0449ZM36.1492 95.7355H24.4788V97.9441H36.1492V95.7355ZM25.5831 96.8398V12.7H23.3745V96.8398H25.5831ZM24.4788 11.5957H23.9141V13.8042H24.4788V11.5957ZM23.3032 11.78L-0.225844 27.4033L0.995864 29.2432L24.5249 13.6199L23.3032 11.78ZM1.48931 28.3232V16.4646H-0.719287V28.3232H1.48931ZM0.995904 17.3845L25.0897 1.38478L23.8679 -0.455093L-0.225884 15.5447L0.995904 17.3845ZM24.4788 1.56914H36.1492V-0.639456H24.4788V1.56914Z" fill="#BCBCBC" mask="url(#path-1-outside-1_1_18986)"/>
</svg>
