<svg width="61" height="98" viewBox="0 0 61 98" fill="none" xmlns="http://www.w3.org/2000/svg">
<mask id="path-1-outside-1_1_18990" maskUnits="userSpaceOnUse" x="-1.92969" y="-1.16016" width="64" height="101" fill="black">
<rect fill="white" x="-1.92969" y="-1.16016" width="64" height="101"/>
<path d="M0.0466312 97.8398V89.3694L31.8579 54.5464C35.5912 50.468 38.6657 46.923 41.0813 43.9113C43.4969 40.8682 45.2852 38.0133 46.4459 35.3467C47.6381 32.6487 48.2341 29.8252 48.2341 26.8762C48.2341 23.488 47.4185 20.5547 45.7871 18.0764C44.1871 15.598 41.9911 13.6843 39.199 12.3353C36.4069 10.9863 33.2697 10.3118 29.7874 10.3118C26.0854 10.3118 22.8541 11.0804 20.0934 12.6176C17.364 14.1235 15.2464 16.2411 13.7405 18.9705C12.2661 21.6998 11.5288 24.8998 11.5288 28.5703H0.423096C0.423096 22.9233 1.72504 17.9666 4.32892 13.7C6.9328 9.43335 10.4778 6.1079 14.9641 3.72363C19.4816 1.33935 24.5482 0.147213 30.1638 0.147213C35.8108 0.147213 40.8146 1.33935 45.1754 3.72363C49.5361 6.1079 52.9556 9.32354 55.434 13.3705C57.9124 17.4175 59.1516 21.9194 59.1516 26.8762C59.1516 30.4213 58.5085 33.8879 57.2222 37.2761C55.9673 40.6329 53.7713 44.3818 50.6341 48.5229C47.5283 52.6327 43.2146 57.6522 37.6931 63.5815L16.0464 86.7341V87.4871H60.8457V97.8398H0.0466312Z"/>
</mask>
<path d="M0.0466309 97.8398H-1.05767V98.9441H0.0466309V97.8398ZM0.0466309 89.3694L-0.768685 88.6246L-1.05767 88.9409V89.3694H0.0466309ZM31.8579 54.5464L31.0434 53.8008L31.0426 53.8016L31.8579 54.5464ZM41.0813 43.9113L41.9427 44.6022L41.9462 44.5978L41.0813 43.9113ZM46.4459 35.3467L45.4358 34.9004L45.4334 34.9059L46.4459 35.3467ZM45.7871 18.0764L44.8593 18.6753L44.8647 18.6835L45.7871 18.0764ZM39.199 12.3353L39.6794 11.3409L39.199 12.3353ZM20.0934 12.6176L20.6268 13.5845L20.6306 13.5824L20.0934 12.6176ZM13.7405 18.9705L12.7736 18.437L12.769 18.4456L13.7405 18.9705ZM11.5288 28.5703V29.6746H12.6331V28.5703H11.5288ZM0.423096 28.5703H-0.681201V29.6746H0.423096V28.5703ZM4.32892 13.7L5.27154 14.2752H5.27154L4.32892 13.7ZM14.9641 3.72363L14.4486 2.747L14.4458 2.74849L14.9641 3.72363ZM45.1754 3.72363L45.7051 2.7547L45.1754 3.72363ZM57.2222 37.2761L56.1898 36.8841L56.1879 36.8894L57.2222 37.2761ZM50.6341 48.5229L49.7539 47.8561L49.7531 47.8571L50.6341 48.5229ZM37.6931 63.5815L38.4998 64.3357L38.5013 64.3341L37.6931 63.5815ZM16.0464 86.7341L15.2397 85.9799L14.9421 86.2983V86.7341H16.0464ZM16.0464 87.4871H14.9421V88.5914H16.0464V87.4871ZM60.8457 87.4871H61.95V86.3828H60.8457V87.4871ZM60.8457 97.8398V98.9441H61.95V97.8398H60.8457ZM1.15093 97.8398V89.3694H-1.05767V97.8398H1.15093ZM0.861948 90.1142L32.6732 55.2912L31.0426 53.8016L-0.768685 88.6246L0.861948 90.1142ZM32.6725 55.292C36.4157 51.2028 39.5072 47.6387 41.9427 44.6022L40.2199 43.2203C37.8241 46.2072 34.7667 49.7332 31.0434 53.8008L32.6725 55.292ZM41.9462 44.5978C44.4029 41.503 46.249 38.5659 47.4585 35.7874L45.4334 34.9059C44.3213 37.4608 42.591 40.2333 40.2164 43.2247L41.9462 44.5978ZM47.456 35.793C48.7103 32.9544 49.3384 29.9789 49.3384 26.8762H47.1298C47.1298 29.6715 46.5659 32.3429 45.4358 34.9004L47.456 35.793ZM49.3384 26.8762C49.3384 23.3037 48.4757 20.1525 46.7095 17.4692L44.8647 18.6835C46.3612 20.957 47.1298 23.6723 47.1298 26.8762H49.3384ZM46.7149 17.4774C44.9992 14.8198 42.6443 12.7734 39.6794 11.3409L38.7186 13.3296C41.3379 14.5951 43.3751 16.3762 44.8593 18.6753L46.7149 17.4774ZM39.6794 11.3409C36.7199 9.9111 33.4154 9.20747 29.7874 9.20747V11.4161C33.1239 11.4161 36.0938 12.0614 38.7186 13.3296L39.6794 11.3409ZM29.7874 9.20747C25.9298 9.20747 22.5074 10.0095 19.5562 11.6528L20.6306 13.5824C23.2009 12.1512 26.2411 11.4161 29.7874 11.4161V9.20747ZM19.5599 11.6507C16.6481 13.2573 14.3802 15.5251 12.7736 18.437L14.7074 19.5039C16.1126 16.957 18.08 14.9897 20.6268 13.5845L19.5599 11.6507ZM12.769 18.4456C11.1927 21.3633 10.4245 24.7501 10.4245 28.5703H12.6331C12.6331 25.0495 13.3394 22.0363 14.7121 19.4953L12.769 18.4456ZM11.5288 27.466H0.423096V29.6746H11.5288V27.466ZM1.52739 28.5703C1.52739 23.0993 2.78662 18.3469 5.27154 14.2752L3.3863 13.1247C0.663456 17.5862 -0.681201 22.7473 -0.681201 28.5703H1.52739ZM5.27154 14.2752C7.77058 10.1804 11.1678 6.99178 15.4823 4.69876L14.4458 2.74849C9.78788 5.22403 6.09502 8.68628 3.3863 13.1247L5.27154 14.2752ZM15.4795 4.70025C19.8228 2.40792 24.7097 1.25151 30.1638 1.25151V-0.957085C24.3868 -0.957085 19.1404 0.270777 14.4486 2.74701L15.4795 4.70025ZM30.1638 1.25151C35.6512 1.25151 40.4683 2.4086 44.6456 4.69255L45.7051 2.7547C41.1609 0.270107 35.9704 -0.957085 30.1638 -0.957085V1.25151ZM44.6456 4.69255C48.8454 6.98886 52.1195 10.0726 54.4923 13.9473L56.3758 12.7938C53.7918 8.57445 50.2267 5.22695 45.7051 2.7547L44.6456 4.69255ZM54.4923 13.9473C56.8595 17.8128 58.0473 22.1135 58.0473 26.8762H60.2559C60.2559 21.7254 58.9653 17.0223 56.3758 12.7938L54.4923 13.9473ZM58.0473 26.8762C58.0473 30.2843 57.4296 33.6183 56.1898 36.8841L58.2546 37.668C59.5873 34.1575 60.2559 30.5582 60.2559 26.8762H58.0473ZM56.1879 36.8894C54.9832 40.1118 52.8527 43.7656 49.7539 47.8561L51.5143 49.1898C54.6899 44.998 56.9515 41.1539 58.2566 37.6628L56.1879 36.8894ZM49.7531 47.8571C46.6791 51.9248 42.3935 56.9136 36.885 62.829L38.5013 64.3341C44.0357 58.3908 48.3775 53.3406 51.5151 49.1888L49.7531 47.8571ZM36.8865 62.8274L15.2397 85.9799L16.853 87.4883L38.4998 64.3357L36.8865 62.8274ZM14.9421 86.7341V87.4871H17.1507V86.7341H14.9421ZM16.0464 88.5914H60.8457V86.3828H16.0464V88.5914ZM59.7414 87.4871V97.8398H61.95V87.4871H59.7414ZM60.8457 96.7355H0.0466309V98.9441H60.8457V96.7355Z" fill="#BCBCBC" mask="url(#path-1-outside-1_1_18990)"/>
</svg>
