<svg width="66" height="100" viewBox="0 0 66 100" fill="none" xmlns="http://www.w3.org/2000/svg">
<mask id="path-1-outside-1_1_18991" maskUnits="userSpaceOnUse" x="-1.17578" y="-1.16016" width="69" height="102" fill="black">
<rect fill="white" x="-1.17578" y="-1.16016" width="69" height="102"/>
<path d="M33.3647 99.1575C27.1531 99.1575 21.6159 98.0908 16.7532 95.9575C11.9219 93.8242 8.07886 90.8596 5.224 87.0635C2.40051 83.2361 0.863282 78.797 0.612305 73.7461H12.4709C12.7219 76.8519 13.7886 79.5342 15.6709 81.793C17.5532 84.0204 20.0159 85.7459 23.059 86.9694C26.1021 88.1929 29.4746 88.8047 33.1765 88.8047C37.3176 88.8047 40.9882 88.0831 44.1881 86.64C47.3881 85.1969 49.8978 83.1891 51.7174 80.6166C53.537 78.0441 54.4468 75.0637 54.4468 71.6755C54.4468 68.1305 53.5684 65.009 51.8115 62.311C50.0547 59.5816 47.4822 57.4483 44.094 55.9111C40.7058 54.3738 36.5647 53.6052 31.6707 53.6052H23.9531V43.2524H31.6707C35.498 43.2524 38.8549 42.5623 41.7411 41.1819C44.6587 39.8015 46.9332 37.8564 48.5645 35.3467C50.2272 32.8369 51.0586 29.8879 51.0586 26.4998C51.0586 23.2371 50.337 20.3979 48.8939 17.9822C47.4508 15.5666 45.4116 13.6843 42.7764 12.3353C40.1725 10.9863 37.098 10.3118 33.553 10.3118C30.2275 10.3118 27.0903 10.9235 24.1414 12.147C21.2238 13.3392 18.8395 15.0803 16.9885 17.3705C15.1376 19.6293 14.1337 22.3586 13.9768 25.5586H2.68286C2.87109 20.5077 4.39264 16.0842 7.2475 12.2882C10.1024 8.46081 13.8356 5.48046 18.4473 3.34717C23.0904 1.21386 28.1884 0.147213 33.7412 0.147213C39.7019 0.147213 44.8156 1.35504 49.0822 3.77069C53.3488 6.15496 56.6271 9.30786 58.9173 13.2294C61.2075 17.1509 62.3525 21.3861 62.3525 25.9351C62.3525 31.3624 60.9251 35.9898 58.0703 39.8172C55.2468 43.6446 51.4037 46.2955 46.541 47.77V48.5229C52.6272 49.5269 57.3801 52.115 60.7996 56.2875C64.2192 60.4286 65.929 65.558 65.929 71.6755C65.929 76.9147 64.5015 81.6205 61.6467 85.793C58.8232 89.9341 54.9644 93.1968 50.0704 95.5811C45.1763 97.9653 39.6078 99.1575 33.3647 99.1575Z"/>
</mask>
<path d="M16.7532 95.9575L16.3072 96.9677L16.3096 96.9688L16.7532 95.9575ZM5.224 87.0635L4.33531 87.7191L4.34144 87.7273L5.224 87.0635ZM0.612306 73.7461V72.6418H-0.548226L-0.490631 73.8009L0.612306 73.7461ZM12.4709 73.7461L13.5717 73.6572L13.4896 72.6418H12.4709V73.7461ZM15.6709 81.793L14.8225 82.5L14.8274 82.5058L15.6709 81.793ZM23.059 86.9694L22.6471 87.994L23.059 86.9694ZM51.7174 80.6166L50.8158 79.9789L51.7174 80.6166ZM51.8115 62.311L50.8829 62.9087L50.8861 62.9136L51.8115 62.311ZM44.094 55.9111L43.6377 56.9167L44.094 55.9111ZM23.9531 53.6052H22.8488V54.7095H23.9531V53.6052ZM23.9531 43.2524V42.1481H22.8488V43.2524H23.9531ZM41.7411 41.1819L41.2688 40.1837L41.2646 40.1857L41.7411 41.1819ZM48.5645 35.3467L47.6439 34.7368L47.6386 34.7449L48.5645 35.3467ZM48.8939 17.9822L49.8419 17.4159L48.8939 17.9822ZM42.7764 12.3353L42.2684 13.3158L42.2732 13.3183L42.7764 12.3353ZM24.1414 12.147L24.5591 13.1693L24.5645 13.167L24.1414 12.147ZM16.9885 17.3705L17.8427 18.0704L17.8474 18.0646L16.9885 17.3705ZM13.9768 25.5586V26.6629H15.0283L15.0798 25.6127L13.9768 25.5586ZM2.68286 25.5586L1.57933 25.5175L1.53664 26.6629H2.68286V25.5586ZM7.2475 12.2882L8.13007 12.952L8.13268 12.9485L7.2475 12.2882ZM18.4473 3.34717L17.9863 2.34372L17.9837 2.34491L18.4473 3.34717ZM49.0822 3.77069L48.5381 4.73167L48.5435 4.73468L49.0822 3.77069ZM58.9173 13.2294L57.9637 13.7863V13.7863L58.9173 13.2294ZM58.0703 39.8172L57.1851 39.1569L57.1816 39.1616L58.0703 39.8172ZM46.541 47.77L46.2206 46.7132L45.4367 46.9509V47.77H46.541ZM46.541 48.5229H45.4367V49.46L46.3613 49.6125L46.541 48.5229ZM60.7996 56.2875L59.9455 56.9875L59.9481 56.9907L60.7996 56.2875ZM61.6467 85.793L60.7353 85.1694L60.7343 85.1709L61.6467 85.793ZM50.0704 95.5811L50.554 96.5738L50.0704 95.5811ZM33.3647 98.0532C27.2802 98.0532 21.898 97.0087 17.1969 94.9463L16.3096 96.9688C21.3338 99.173 27.026 100.262 33.3647 100.262V98.0532ZM17.1993 94.9473C12.521 92.8816 8.83563 90.0285 6.10656 86.3998L4.34144 87.7273C7.32209 91.6906 11.3229 94.7669 16.3072 96.9677L17.1993 94.9473ZM6.11265 86.408C3.42645 82.7667 1.95615 78.5396 1.71524 73.6913L-0.490631 73.8009C-0.22959 79.0543 1.37458 83.7056 4.33534 87.7191L6.11265 86.408ZM0.612306 74.8504H12.4709V72.6418H0.612306V74.8504ZM11.3702 73.835C11.6384 77.1536 12.7854 80.0554 14.8226 82.5L16.5192 81.0861C14.7917 79.0131 13.8054 76.5502 13.5717 73.6572L11.3702 73.835ZM14.8274 82.5058C16.8399 84.8872 19.458 86.7118 22.6471 87.994L23.471 85.9448C20.5739 84.78 18.2666 83.1537 16.5144 81.0803L14.8274 82.5058ZM22.6471 87.994C25.8369 89.2765 29.3515 89.909 33.1765 89.909V87.7004C29.5977 87.7004 26.3673 87.1093 23.471 85.9448L22.6471 87.994ZM33.1765 89.909C37.4464 89.909 41.2761 89.1647 44.6421 87.6467L43.7341 85.6334C40.7002 87.0016 37.1889 87.7004 33.1765 87.7004V89.909ZM44.6421 87.6467C48.0005 86.1321 50.6732 84.0052 52.619 81.2543L50.8158 79.9789C49.1225 82.3729 46.7756 84.2617 43.7341 85.6334L44.6421 87.6467ZM52.619 81.2543C54.5806 78.481 55.5511 75.274 55.5511 71.6755H53.3425C53.3425 74.8534 52.4934 77.6071 50.8158 79.9789L52.619 81.2543ZM55.5511 71.6755C55.5511 67.939 54.6222 64.6036 52.7369 61.7084L50.8861 62.9136C52.5145 65.4143 53.3425 68.322 53.3425 71.6755H55.5511ZM52.7401 61.7133C50.8522 58.7803 48.1028 56.5173 44.5503 54.9054L43.6377 56.9167C46.8615 58.3794 49.2572 60.3829 50.883 62.9087L52.7401 61.7133ZM44.5503 54.9054C40.9811 53.2861 36.6747 52.5009 31.6707 52.5009V54.7095C36.4547 54.7095 40.4305 55.4616 43.6377 56.9167L44.5503 54.9054ZM31.6707 52.5009H23.9531V54.7095H31.6707V52.5009ZM25.0574 53.6052V43.2524H22.8488V53.6052H25.0574ZM23.9531 44.3567H31.6707V42.1481H23.9531V44.3567ZM31.6707 44.3567C35.631 44.3567 39.1562 43.6422 42.2175 42.1781L41.2646 40.1857C38.5535 41.4823 35.3651 42.1481 31.6707 42.1481V44.3567ZM42.2134 42.1801C45.3009 40.7193 47.7388 38.6433 49.4904 35.9485L47.6386 34.7449C46.1276 37.0696 44.0164 38.8837 41.2688 40.1837L42.2134 42.1801ZM49.4851 35.9566C51.2823 33.2439 52.1629 30.0767 52.1629 26.4998H49.9543C49.9543 29.6991 49.1722 32.43 47.6439 34.7368L49.4851 35.9566ZM52.1629 26.4998C52.1629 23.0699 51.4027 20.0285 49.8419 17.4159L47.9459 18.5486C49.2714 20.7673 49.9543 23.4042 49.9543 26.4998H52.1629ZM49.8419 17.4159C48.2869 14.8129 46.0892 12.7905 43.2796 11.3523L42.2732 13.3183C44.7341 14.578 46.6147 16.3203 47.9459 18.5486L49.8419 17.4159ZM43.2844 11.3547C40.494 9.90912 37.2383 9.20747 33.553 9.20747V11.4161C36.9578 11.4161 39.851 12.0634 42.2684 13.3158L43.2844 11.3547ZM33.553 9.20747C30.0885 9.20747 26.8069 9.84556 23.7182 11.127L24.5645 13.167C27.3738 12.0015 30.3666 11.4161 33.553 11.4161V9.20747ZM23.7237 11.1248C20.6462 12.3822 18.1059 14.2312 16.1297 16.6763L17.8474 18.0646C19.5731 15.9294 21.8013 14.2961 24.5591 13.1693L23.7237 11.1248ZM16.1344 16.6706C14.1188 19.1303 13.0411 22.0924 12.8738 25.5045L15.0798 25.6127C15.2262 22.6249 16.1564 20.1282 17.8427 18.0704L16.1344 16.6706ZM13.9768 24.4543H2.68286V26.6629H13.9768V24.4543ZM3.78639 25.5997C3.9668 20.7588 5.41956 16.556 8.13006 12.952L6.36494 11.6245C3.36572 15.6124 1.77539 20.2566 1.57933 25.5175L3.78639 25.5997ZM8.13268 12.9485C10.8706 9.27781 14.455 6.41068 18.911 4.34943L17.9837 2.34491C13.2163 4.55025 9.3341 7.64381 6.36232 11.6279L8.13268 12.9485ZM18.9084 4.35062C23.3946 2.28936 28.3335 1.25151 33.7412 1.25151V-0.957085C28.0432 -0.957085 22.7862 0.138367 17.9863 2.34372L18.9084 4.35062ZM33.7412 1.25151C39.5522 1.25151 44.4697 2.42825 48.5381 4.73165L49.6262 2.80972C45.1614 0.281822 39.8517 -0.957085 33.7412 -0.957085V1.25151ZM48.5435 4.73468C52.6515 7.03034 55.7806 10.048 57.9637 13.7863L59.8709 12.6725C57.4737 8.56768 54.046 5.27959 49.6209 2.8067L48.5435 4.73468ZM57.9637 13.7863C60.155 17.5385 61.2482 21.5815 61.2482 25.9351H63.4568C63.4568 21.1908 62.2599 16.7633 59.8709 12.6725L57.9637 13.7863ZM61.2482 25.9351C61.2482 31.1585 59.8786 35.5458 57.1851 39.1569L58.9554 40.4775C61.9716 36.4338 63.4568 31.5664 63.4568 25.9351H61.2482ZM57.1816 39.1616C54.5093 42.7841 50.8721 45.3028 46.2206 46.7132L46.8615 48.8268C51.9353 47.2883 55.9843 44.5051 58.9589 40.4728L57.1816 39.1616ZM45.4367 47.77V48.5229H47.6453V47.77H45.4367ZM46.3613 49.6125C52.2233 50.5794 56.7203 53.0521 59.9455 56.9875L61.6537 55.5876C58.0399 51.178 53.0311 48.4743 46.7207 47.4334L46.3613 49.6125ZM59.9481 56.9907C63.1817 60.9066 64.8247 65.7769 64.8247 71.6755H67.0333C67.0333 65.3391 65.2566 59.9507 61.6511 55.5844L59.9481 56.9907ZM64.8247 71.6755C64.8247 76.7007 63.4597 81.1875 60.7353 85.1694L62.5581 86.4165C65.5433 82.0534 67.0333 77.1286 67.0333 71.6755H64.8247ZM60.7343 85.1709C58.0282 89.1397 54.3234 92.2807 49.5867 94.5883L50.554 96.5738C55.6055 94.1128 59.6181 90.7284 62.5591 86.4151L60.7343 85.1709ZM49.5867 94.5883C44.864 96.8891 39.4648 98.0532 33.3647 98.0532V100.262C39.7507 100.262 45.4886 99.0416 50.554 96.5738L49.5867 94.5883Z" fill="#BCBCBC" mask="url(#path-1-outside-1_1_18991)"/>
</svg>
