<svg width="99" height="99" viewBox="0 0 99 99" fill="none" xmlns="http://www.w3.org/2000/svg">
<path d="M30.0471 13.7501C30.332 14.0342 30.5579 14.3717 30.7121 14.7433C30.8663 15.1148 30.9457 15.5132 30.9457 15.9155C30.9457 16.3178 30.8663 16.7161 30.7121 17.0877C30.5579 17.4593 30.332 17.7968 30.0471 18.0809L17.8133 30.3147C17.5292 30.5995 17.1917 30.8255 16.8202 30.9796C16.4486 31.1338 16.0503 31.2132 15.648 31.2132C15.2457 31.2132 14.8473 31.1338 14.4758 30.9796C14.1042 30.8255 13.7667 30.5995 13.4826 30.3147L7.36568 24.1978C7.08132 23.9134 6.85575 23.5758 6.70185 23.2043C6.54796 22.8327 6.46875 22.4345 6.46875 22.0324C6.46875 21.6302 6.54796 21.232 6.70185 20.8605C6.85575 20.4889 7.08132 20.1514 7.36568 19.867C7.65004 19.5826 7.98763 19.3571 8.35917 19.2032C8.7307 19.0493 9.12891 18.9701 9.53106 18.9701C9.93321 18.9701 10.3314 19.0493 10.703 19.2032C11.0745 19.3571 11.4121 19.5826 11.6964 19.867L15.648 23.8246L25.7164 13.7501C26.0005 13.4653 26.338 13.2393 26.7095 13.0851C27.0811 12.9309 27.4795 12.8516 27.8818 12.8516C28.284 12.8516 28.6824 12.9309 29.054 13.0851C29.4255 13.2393 29.763 13.4653 30.0471 13.7501ZM89.0507 25.0908H40.1155C39.3044 25.0908 38.5265 24.7686 37.9529 24.195C37.3793 23.6215 37.0571 22.8435 37.0571 22.0324C37.0571 21.2212 37.3793 20.4433 37.9529 19.8697C38.5265 19.2962 39.3044 18.9739 40.1155 18.9739H89.0507C89.8619 18.9739 90.6398 19.2962 91.2134 19.8697C91.7869 20.4433 92.1092 21.2212 92.1092 22.0324C92.1092 22.8435 91.7869 23.6215 91.2134 24.195C90.6398 24.7686 89.8619 25.0908 89.0507 25.0908ZM37.0571 49.5584C37.0571 48.7473 37.3793 47.9693 37.9529 47.3958C38.5265 46.8222 39.3044 46.5 40.1155 46.5H89.0507C89.8619 46.5 90.6398 46.8222 91.2134 47.3958C91.7869 47.9693 92.1092 48.7473 92.1092 49.5584C92.1092 50.3696 91.7869 51.1475 91.2134 51.7211C90.6398 52.2946 89.8619 52.6169 89.0507 52.6169H40.1155C39.3044 52.6169 38.5265 52.2946 37.9529 51.7211C37.3793 51.1475 37.0571 50.3696 37.0571 49.5584ZM30.0471 68.8022C30.332 69.0863 30.5579 69.4238 30.7121 69.7954C30.8663 70.1669 30.9457 70.5653 30.9457 70.9676C30.9457 71.3699 30.8663 71.7682 30.7121 72.1398C30.5579 72.5113 30.332 72.8488 30.0471 73.1329L17.8133 85.3667C17.5292 85.6516 17.1917 85.8775 16.8202 86.0317C16.4486 86.1859 16.0503 86.2653 15.648 86.2653C15.2457 86.2653 14.8473 86.1859 14.4758 86.0317C14.1042 85.8775 13.7667 85.6516 13.4826 85.3667L7.36568 79.2498C7.08132 78.9655 6.85575 78.6279 6.70185 78.2564C6.54796 77.8848 6.46875 77.4866 6.46875 77.0845C6.46875 76.6823 6.54796 76.2841 6.70185 75.9126C6.85575 75.541 7.08132 75.2034 7.36568 74.9191C7.93998 74.3448 8.71889 74.0221 9.53106 74.0221C9.93321 74.0221 10.3314 74.1014 10.703 74.2552C11.0745 74.4091 11.4121 74.6347 11.6964 74.9191L15.648 78.8767L25.7164 68.8022C26.0005 68.5174 26.338 68.2914 26.7095 68.1372C27.0811 67.983 27.4795 67.9036 27.8818 67.9036C28.284 67.9036 28.6824 67.983 29.054 68.1372C29.4255 68.2914 29.763 68.5174 30.0471 68.8022ZM89.0507 80.1429H40.1155C39.3044 80.1429 38.5265 79.8207 37.9529 79.2471C37.3793 78.6735 37.0571 77.8956 37.0571 77.0845C37.0571 76.2733 37.3793 75.4954 37.9529 74.9218C38.5265 74.3482 39.3044 74.026 40.1155 74.026H89.0507C89.8619 74.026 90.6398 74.3482 91.2134 74.9218C91.7869 75.4954 92.1092 76.2733 92.1092 77.0845C92.1092 77.8956 91.7869 78.6735 91.2134 79.2471C90.6398 79.8207 89.8619 80.1429 89.0507 80.1429Z" fill="#FF9796"/>
</svg>
