<svg width="29" height="20" viewBox="0 0 29 20" fill="none" xmlns="http://www.w3.org/2000/svg">
<g id="Group 3662">
<path id="Vector 3" d="M5.30644 19.3324C10.0114 20.4407 12.4387 17.6016 13.0832 15.8572C14.4529 11.6243 11.8005 9.37087 10.5052 8.62268C9.29999 7.92656 9.10378 7.16533 9.01566 6.70701C8.43559 3.69008 11.7247 2.22099 13.4434 1.7079C15.0167 1.31124 13.234 -0.0776272 8.20676 2.01575C3.17954 4.10914 1.27822 8.22407 0.955966 10.0199C0.445724 12.6623 0.60148 18.2241 5.30644 19.3324Z" fill="white"/>
<path id="Vector 4" d="M19.326 19.3324C24.0309 20.4407 26.4582 17.6016 27.1027 15.8572C28.4724 11.6243 25.82 9.37087 24.5247 8.62268C23.3195 7.92656 23.1233 7.16533 23.0352 6.70701C22.4551 3.69008 25.7443 2.22099 27.463 1.7079C29.0363 1.31124 27.2535 -0.0776272 22.2263 2.01575C17.1991 4.10914 15.2978 8.22407 14.9755 10.0199C14.4653 12.6623 14.621 18.2241 19.326 19.3324Z" fill="white"/>
</g>
</svg>
