<svg width="22" height="22" viewBox="0 0 22 22" fill="none" xmlns="http://www.w3.org/2000/svg">
<g clip-path="url(#clip0_1_19011)">
<path d="M16.5007 11.9163V18.333H3.66732V5.49967H8.26898C8.31482 4.84884 8.47065 4.23467 8.70898 3.66634H1.83398V20.1663H18.334V13.7497L16.5007 11.9163ZM15.1257 16.4997H5.04232L7.56315 13.2638L9.35982 15.4272L11.8807 12.1822L15.1257 16.4997ZM17.6923 8.14884C18.0956 7.50717 18.334 6.76467 18.334 5.95801C18.334 3.67551 16.4915 1.83301 14.209 1.83301C11.9265 1.83301 10.084 3.67551 10.084 5.95801C10.084 8.24051 11.9265 10.083 14.1998 10.083C15.0065 10.083 15.7582 9.84467 16.3906 9.44134L19.2507 12.3013L20.5523 10.9997L17.6923 8.14884ZM14.209 8.24967C12.944 8.24967 11.9173 7.22301 11.9173 5.95801C11.9173 4.69301 12.944 3.66634 14.209 3.66634C15.474 3.66634 16.5007 4.69301 16.5007 5.95801C16.5007 7.22301 15.474 8.24967 14.209 8.24967Z" fill="white"/>
</g>
<defs>
<clipPath id="clip0_1_19011">
<rect width="22" height="22" fill="white"/>
</clipPath>
</defs>
</svg>
